<?xml version="1.0" encoding="utf-8"?>
<!-- Generator: Adobe Illustrator 16.0.0, SVG Export Plug-In . SVG Version: 6.00 Build 0)  -->
<!DOCTYPE svg PUBLIC "-//W3C//DTD SVG 1.1//EN" "http://www.w3.org/Graphics/SVG/1.1/DTD/svg11.dtd">
<svg version="1.1" id="Layer_1" xmlns="http://www.w3.org/2000/svg" xmlns:xlink="http://www.w3.org/1999/xlink" x="0px" y="0px"
	 width="40.521px" height="11.535px" viewBox="0 0 40.521 11.535" enable-background="new 0 0 40.521 11.535" xml:space="preserve">
<path fill-rule="evenodd" clip-rule="evenodd" fill="#7AC143" d="M37.617,0.002c-0.199,0-0.385-0.02-0.578-0.028
	c-0.509,0.067-1.034,0.112-1.588,0.112c-0.565,0-1.099-0.048-1.619-0.117c-0.672,0.122-1.376,0.2-2.131,0.2
	c-0.424,0-0.835-0.021-1.233-0.061c-0.564,0.084-1.146,0.144-1.767,0.144c-0.585,0-1.137-0.052-1.672-0.125
	c-0.532,0.073-1.08,0.125-1.661,0.125c-0.598,0-1.161-0.054-1.708-0.13C23.345,0.146,23.03,0.169,22.7,0.169
	c-0.692,0-1.34-0.067-1.963-0.169c-0.62,0.102-1.264,0.169-1.953,0.169c-0.646,0-1.252-0.061-1.839-0.15
	C16.542,0.06,16.13,0.086,15.7,0.086c-0.414,0-0.813-0.021-1.203-0.059c-0.392,0.039-0.796,0.059-1.214,0.059
	c-0.494,0-0.965-0.034-1.423-0.087c-0.026,0-0.051,0.003-0.077,0.003c-0.162,0-0.313-0.017-0.471-0.023
	c-0.784,0.174-1.624,0.273-2.529,0.273c-0.251,0-0.487-0.022-0.729-0.036C7.8,0.233,7.548,0.252,7.284,0.252
	c-0.223,0-0.432-0.021-0.648-0.032C6.409,0.233,6.186,0.252,5.95,0.252c-0.484,0-0.946-0.032-1.396-0.083
	C4.117,0.219,3.67,0.252,3.2,0.252c-0.5,0-0.976-0.036-1.439-0.089C1.312,0.215,0.852,0.252,0.367,0.252
	c-0.089,0-0.171-0.011-0.258-0.013C0.07,0.337,0.042,0.438,0,0.534h1.367c2.209,0,5.266,1.266,6.829,2.829l9.343,6.344
	c1.563,1.563,4.095,1.563,5.657,0l9.343-6.344c1.562-1.563,4.62-2.829,6.829-2.829h1.155c-0.038-0.293-0.057-0.586-0.066-0.88
	C39.582-0.128,38.642,0.002,37.617,0.002z"/>
</svg>
