<?xml version="1.0" encoding="utf-8"?>
<!-- Generator: Adobe Illustrator 16.0.0, SVG Export Plug-In . SVG Version: 6.00 Build 0)  -->
<!DOCTYPE svg PUBLIC "-//W3C//DTD SVG 1.1//EN" "http://www.w3.org/Graphics/SVG/1.1/DTD/svg11.dtd">
<svg version="1.1" id="Layer_1" xmlns="http://www.w3.org/2000/svg" xmlns:xlink="http://www.w3.org/1999/xlink" x="0px" y="0px"
	 width="37px" height="65px" viewBox="0 0 37 65" enable-background="new 0 0 37 65" xml:space="preserve">
<path fill-rule="evenodd" clip-rule="evenodd" fill="#035798" d="M25.62,0.584c3.459,0,3.459,4.549,3.459,6.823
	c5.057,3.127,2.129,9.382,3.726,13.362c0.532,1.136,1.331,1.99,1.862,3.411c1.064,1.99,1.863,5.402,1.863,8.245
	c0,2.274-0.532,5.401-1.863,8.245c-0.532,1.137-1.597,1.99-1.862,3.412c-1.065,3.98,1.331,9.95-3.726,13.362
	c0,0.284,0,6.822-2.928,6.822H10.982c-3.194-1.137-2.661-4.549-2.927-6.822c-5.323-3.412-2.13-9.667-3.726-13.362
	c-0.533-1.422-1.331-2.275-1.863-3.412c-1.064-2.274-1.597-5.686-1.597-8.245c0-0.852,0-1.421,0-2.274
	c0-3.98,3.459-7.676,3.725-11.372c0-1.421,0.267-3.126,0.267-4.548c0-0.285,0-0.854,0-1.422C4.595,10.25,7.522,8.26,8.321,6.554
	c0-0.568,0-1.137,0-1.706c-0.533-1.99,1.065-4.264,3.193-4.264H25.62z M25.62,3.712c0.266,0.283,0.266,0.568,0.532,0.852v1.99
	H11.249v-1.99c0.266-0.283,0.266-0.568,0.532-0.852H25.62z M26.684,10.25c2.129-0.568,2.928,2.843,2.928,4.548v2.275
	c-3.46-3.128-7.452-3.98-10.912-3.98c-3.726,0-6.653,0.569-10.912,3.98c0.267-1.99-0.798-6.823,2.662-6.823H26.684z M33.603,32.708
	c0,8.528-7.185,15.636-14.903,15.636c-8.516,0-14.903-7.675-14.903-15.92c0-8.529,6.387-15.92,14.638-15.92
	C27.216,16.504,33.603,23.895,33.603,32.708z M19.232,23.043c1.331,1.136,0.532,3.126,0.798,4.832
	c4.258,3.412,2.661,3.412,2.661,6.255c0,0.853,3.459,3.98,3.459,4.548c0,0.853-0.798,1.706-1.597,1.706
	c-0.532,0-2.661-2.274-3.992-3.696c-3.726,1.422-6.122-1.137-6.122-4.264c0-5.118,2.928-1.99,2.928-7.108
	c0-0.852-0.266-1.99,0.532-2.273H19.232z M20.031,32.424c0,0.569-0.798,1.421-1.331,1.421c-0.798,0-1.331-0.852-1.331-1.421
	c0-0.852,0.532-1.421,1.331-1.421C19.232,31.003,20.031,31.572,20.031,32.424z M18.7,51.756c3.46,0,6.388-0.853,10.912-3.98
	c0,0.853,0.532,6.823-2.395,6.823H9.918c-0.799,0-1.065-0.568-1.331-0.853c-0.799-1.137-0.799-3.127-0.799-3.695v-2.275
	C10.982,50.618,14.974,51.756,18.7,51.756z M26.151,58.294v1.99c-0.266,0.284-0.266,0.57-0.532,0.853H11.781
	c-0.267-0.283-0.267-0.569-0.532-0.853v-1.99H26.151z"/>
</svg>
