<?xml version="1.0" encoding="utf-8"?>
<!-- Generator: Adobe Illustrator 16.0.0, SVG Export Plug-In . SVG Version: 6.00 Build 0)  -->
<!DOCTYPE svg PUBLIC "-//W3C//DTD SVG 1.1//EN" "http://www.w3.org/Graphics/SVG/1.1/DTD/svg11.dtd">
<svg version="1.1" id="Layer_1" xmlns="http://www.w3.org/2000/svg" xmlns:xlink="http://www.w3.org/1999/xlink" x="0px" y="0px"
	 width="75.864px" height="43px" viewBox="0 0 75.864 43" enable-background="new 0 0 75.864 43" xml:space="preserve">
<path fill-rule="evenodd" clip-rule="evenodd" fill="#7AC143" d="M32.603,5.037c0,1.052-1.399,2.104-2.099,2.104
	c-1.05,0-4.898-2.455-8.746-2.455c-9.446,0-16.792,8.418-16.792,16.837c0,10.524,8.046,17.188,16.792,17.188
	c11.195,0,15.043-9.471,27.987-20.344c-1.749-0.702-5.248,0.35-5.248-2.456c0-0.702,0.7-1.403,1.399-1.754h10.845v10.875
	c-0.35,0.701-1.05,1.403-2.099,1.403c-3.149,0-1.399-3.858-2.099-5.261C36.8,34.502,34.701,42.571,21.757,42.571
	c-0.7,0-4.548-0.351-6.297-1.052C9.163,40.114,1.117,30.645,1.117,25.382v-7.366C3.565,6.792,12.661,0.829,21.757,0.829
	C23.157,0.829,32.603,1.53,32.603,5.037z"/>
<path fill-rule="evenodd" clip-rule="evenodd" fill="#7AC143" d="M74.583,21.875c0,11.575-10.146,20.696-20.991,20.696
	c-1.749,0-10.845-0.702-10.845-4.209c0-1.404,1.049-1.754,2.099-1.754c0.7,0,2.099,0.702,3.499,1.053
	c1.399,0.702,4.198,1.052,5.248,1.052c8.746,0,17.143-7.716,17.143-16.837c0-9.823-8.396-17.188-17.143-17.188
	c-10.845,0-15.043,9.121-27.638,20.345c1.05,0.351,4.898-0.351,4.898,2.455c0,0.702-1.049,2.105-2.099,2.105h-9.795V18.017
	c0.35-0.351,0.7-0.702,1.399-0.702c3.148,0,1.399,3.508,2.449,5.262C37.85,9.247,40.999,0.829,53.593,0.829
	C65.487,0.829,74.583,10.65,74.583,21.875z"/>
</svg>
