<?xml version="1.0" encoding="utf-8"?>
<!-- Generator: Adobe Illustrator 16.0.0, SVG Export Plug-In . SVG Version: 6.00 Build 0)  -->
<!DOCTYPE svg PUBLIC "-//W3C//DTD SVG 1.1//EN" "http://www.w3.org/Graphics/SVG/1.1/DTD/svg11.dtd">
<svg version="1.1" id="Layer_1" xmlns="http://www.w3.org/2000/svg" xmlns:xlink="http://www.w3.org/1999/xlink" x="0px" y="0px"
	 width="56px" height="67px" viewBox="0 0 56 67" enable-background="new 0 0 56 67" xml:space="preserve">
<path fill-rule="evenodd" clip-rule="evenodd" fill="#075798" d="M28.174,6.108c0,1.052-0.938,1.58-1.607,1.58
	c-0.938,0-1.474-0.921-1.474-1.58c0-0.921,0.804-1.447,1.474-1.447C27.505,4.661,28.174,5.187,28.174,6.108z"/>
<path fill-rule="evenodd" clip-rule="evenodd" fill="#075798" d="M26.969,5.714c0,0.131,0.134,0,0.134,0.394
	c0,0.263-0.134,0.263-0.268,0.395h-0.401c-0.134-0.132-0.134,0-0.134-0.395c0-0.263,0.134-0.263,0.268-0.394H26.969z"/>
<path fill-rule="evenodd" clip-rule="evenodd" fill="#075798" d="M33.664,0.713c2.143-0.131,4.955,2.369,4.955,4.474v7.763
	c2.009,0.132,1.741,2.631,1.741,3.948c0,0.789,0.268,4.079-1.741,3.816l0.134,12.632c0.803,0.13,2.142,0,2.544,0
	c8.034,0,14.328,6.184,14.328,13.947c0,7.895-6.695,14.079-14.328,14.079c-0.402,0-1.741-0.131-2.544-0.263
	c-0.268,2.237-2.544,5-4.821,5H5.678c-2.143-0.131-4.553-2.63-4.553-4.473V5.187c0-2.105,2.678-4.605,4.82-4.474H33.664z
	 M33.932,2.818c0.402,0,0.804,0.132,1.072,0.264c0.134,0.131,1.473,1.316,1.473,1.842v29.079c-6.963,2.632-9.642,8.422-9.642,13.29
	c0,4.736,2.544,10.526,9.507,13.289c0.134,0.264,0.134,0.395,0.134,0.658c0,0.789-0.938,2.764-2.277,2.764H5.41
	c-0.268-0.264-2.142-1.448-2.142-2.105V11.767h28.254c0.67-0.264,0.804-0.791,0.804-1.053c0-0.133-0.134-0.527-0.669-1.053H3.268
	V4.924c0.134-0.921,1.473-2.237,2.41-2.105H33.932z M53.482,47.292c0,6.974-5.624,12.104-12.186,12.104
	c-4.017,0-9.374-2.368-11.516-7.763c-0.268-0.921-0.669-2.5-0.669-2.763v-3.026c1.205-7.238,6.83-10.526,12.186-10.526
	C48.26,35.319,53.482,40.713,53.482,47.292z"/>
<path fill-rule="evenodd" clip-rule="evenodd" fill="#075798" d="M42.234,41.108l0.134,9.869c0.268-0.263,3.348-3.553,4.017-3.553
	c0.67,0,1.071,0.658,1.071,0.921c0,0.395-0.536,0.789-0.803,1.185c-0.268,0.131-4.687,4.867-5.356,4.867
	c-0.804,0-6.16-5.789-6.16-6.052c0-0.79,0.67-0.921,0.938-0.921c0.669,0,3.749,3.158,4.285,3.553V40.845
	c0.268-0.263,0.536-0.526,0.938-0.526C41.564,40.319,42.234,40.319,42.234,41.108z"/>
<path fill-rule="evenodd" clip-rule="evenodd" fill="#075798" d="M24.559,58.608c0,2.5-2.008,3.816-3.883,3.816
	c-2.008,0-3.883-1.579-3.883-3.685c0-2.105,1.875-3.947,4.017-3.947C23.219,54.792,24.559,56.898,24.559,58.608z"/>
<path fill-rule="evenodd" clip-rule="evenodd" fill="#075798" d="M22.55,58.608c0,1.315-1.206,1.843-1.875,1.843
	c-1.339,0-1.741-1.185-1.741-1.843c0-0.92,0.536-1.71,1.741-1.71C21.747,56.898,22.55,57.688,22.55,58.608z"/>
</svg>
