<?xml version="1.0" encoding="utf-8"?>
<!-- Generator: Adobe Illustrator 16.0.0, SVG Export Plug-In . SVG Version: 6.00 Build 0)  -->
<!DOCTYPE svg PUBLIC "-//W3C//DTD SVG 1.1//EN" "http://www.w3.org/Graphics/SVG/1.1/DTD/svg11.dtd">
<svg version="1.1" id="Layer_1" xmlns="http://www.w3.org/2000/svg" xmlns:xlink="http://www.w3.org/1999/xlink" x="0px" y="0px"
	 width="56px" height="56px" viewBox="0 0 56 56" enable-background="new 0 0 56 56" xml:space="preserve">
<path fill-rule="evenodd" clip-rule="evenodd" fill="#7AC143" d="M54.958,15.631c0,8.246-6.661,14.906-14.801,14.906
	c-2.537,0-4.969-0.634-7.294-1.903l-8.352,3.912c-0.634-0.105-1.163-0.741-1.057-1.162l3.912-8.353
	c-0.846-1.375-1.903-4.546-1.903-6.238v-2.008c0.529-8.774,8.141-13.744,14.695-13.744C48.298,1.041,54.958,7.702,54.958,15.631z
	 M52.738,15.843c0,6.977-6.025,12.474-12.475,12.474c-2.749,0-3.912-0.528-7.295-2.114l-5.92,2.75l2.749-6.026
	c-0.634-1.27-2.114-4.44-2.114-5.814v-2.538c0.951-7.399,6.872-11.312,12.475-11.312C47.347,3.262,52.738,8.865,52.738,15.843z
	 M41.426,9.71v7.296c-0.422,0.528-0.634,0.845-1.057,0.845c-0.317,0-1.057-0.316-1.057-0.739V9.604
	c0.317-0.634,0.528-0.634,0.952-0.634C40.581,8.971,41.426,9.183,41.426,9.71z M18.908,16.9c1.057,0.95,1.163,2.325,1.163,3.487
	c0,2.644-2.326,4.652-2.326,4.863c0,0.423,3.595,3.489,3.595,4.652c0,0.739-0.529,1.057-1.057,1.057
	c-1.058,0-5.181-5.497-5.181-5.814c0-1.057,2.96-2.537,2.96-4.758c0-2.537-4.123-5.285-6.237-7.61
	c-0.528-0.529-1.48-0.741-2.114-0.741c-2.008,0-3.912,2.537-5.815,4.757C3.05,17.745,3.05,18.696,3.05,19.754
	c0,3.172,3.277,6.448,5.498,9.515c6.448,8.88,16.809,18.29,25.478,23.153c0.952,0.528,1.48,0.528,2.22,0.528
	c0.74,0,2.22-0.212,2.96-0.952c2.22-2.325,4.757-3.594,4.757-5.814c0-2.432-4.546-5.603-6.343-7.611
	c-0.317-0.424-0.846-0.529-1.269-0.635c-0.211-0.106-0.529,0-0.74,0c-2.327,0-3.807,2.961-4.863,2.961
	c-0.634,0-5.392-4.336-5.603-4.652c-0.106-0.105-0.106-0.317-0.106-0.528c0-0.846,0.422-1.058,1.057-1.058
	c1.057,0,4.123,3.595,4.652,3.595c0.211,0,1.057-1.162,1.691-1.479c0.952-0.741,2.115-0.847,3.172-0.847
	c1.163,0,0.951-0.211,2.643,0.529c0.74,0.317,2.114,1.902,2.96,2.643c1.375,1.27,2.854,2.748,3.912,4.229
	c0.317,0.423,0.528,1.164,0.634,1.798c0.105,0.211,0.105,0.739,0.105,1.057c0,0.212-0.105,1.269-0.317,1.903
	c-0.422,1.797-3.595,4.546-5.392,5.814c-1.163,0.846-2.749,1.058-4.017,1.058c-4.018,0-5.709-2.221-10.361-5.604
	c-4.651-3.383-9.515-7.93-13.849-12.688C11.19,35.929,1.042,23.982,1.042,21.129v-2.433c0.211-0.739,0.317-1.585,0.634-2.22
	c0.846-1.903,4.123-5.393,6.237-6.132c0.529-0.211,1.586-0.211,1.797-0.211C13.622,10.134,14.468,12.459,18.908,16.9z
	 M41.955,20.705c0,0.847-0.951,1.692-1.585,1.692c-0.846,0-1.691-1.163-1.691-1.692c0-0.739,0.846-1.585,1.691-1.585
	C41.321,19.12,41.955,19.966,41.955,20.705z M40.898,20.705c-0.106,0.213-0.317,0.529-0.529,0.529c-0.317,0-0.529-0.316-0.529-0.529
	c0-0.317,0.317-0.423,0.529-0.528C40.581,20.388,40.687,20.494,40.898,20.705z"/>
</svg>
