<?xml version="1.0" encoding="utf-8"?>
<!-- Generator: Adobe Illustrator 16.0.0, SVG Export Plug-In . SVG Version: 6.00 Build 0)  -->
<!DOCTYPE svg PUBLIC "-//W3C//DTD SVG 1.1//EN" "http://www.w3.org/Graphics/SVG/1.1/DTD/svg11.dtd">
<svg version="1.1" id="Layer_1" xmlns="http://www.w3.org/2000/svg" xmlns:xlink="http://www.w3.org/1999/xlink" x="0px" y="0px"
	 width="61px" height="61px" viewBox="0 0 61 61" enable-background="new 0 0 61 61" xml:space="preserve">
<path fill-rule="evenodd" clip-rule="evenodd" fill="#7AC143" d="M34.469,3.396c0.077,0.152,0.229,0.458,0.229,0.687v5.489
	c0.153,0.152,0.382,0.152,0.611,0.229c0.534,0.152,1.221,0.457,1.908,0.685c3.665,1.221,8.703,6.787,9.466,10.293
	c0.076,0.534,0.305,1.067,0.458,1.602c0.153,0.839,0.458,2.287,0.458,2.516V43.65c0.229,1.068,0.305,2.363,1.68,3.355
	c0.458,0.38,1.297,0.533,1.984,0.609c0.153,0,0.382,0.076,0.611,0.076v4.193L30.958,51.96c2.595,0.458,3.74,2.364,3.74,4.27
	c0,2.44-1.832,4.27-4.274,4.27c-0.229,0-0.611-0.153-0.916-0.153c-1.374-0.076-3.283-2.287-3.283-3.355v-1.524
	c0.229-1.677,2.214-3.431,3.664-3.583H9.05v-4.193c0.152,0,0.305-0.076,0.61-0.076c2.366,0.076,3.435-2.668,3.664-4.117V24.972
	c0.077-0.61,0.153-1.221,0.229-1.83c0.153-0.686,0.306-1.524,0.535-2.134c0.152-0.534,0.458-1.068,0.61-1.601
	c1.145-3.507,6.26-8.235,9.771-9.226c0.535-0.153,1.145-0.305,1.756-0.61V4.083c0.458-2.44,2.367-3.583,4.199-3.583
	C31.95,0.5,33.782,1.337,34.469,3.396z M42.79,22.761c0.305,0.916,0.534,2.745,0.534,2.974V44.26
	c0.153,0.991,0.611,2.288,0.993,3.355H16.454c0.687-1.144,0.84-2.287,1.145-3.431v-18.45c0.687-8.081,6.718-12.351,12.825-12.351
	C35.233,13.384,40.729,15.976,42.79,22.761z"/>
<path fill-rule="evenodd" clip-rule="evenodd" fill="#7AC143" d="M6.836,19.712c0,0.533-2.138,5.641-2.138,10.672
	c0,0.153-0.076,0.61,0.077,2.059c0.076,1.297,0.305,2.668,0.61,3.964c0.382,1.602,1.527,4.575,1.527,4.804
	c0,1.22-1.145,2.135-2.137,2.135c-0.458,0-1.298-0.305-1.603-0.686C2.103,41.287,0.5,34.578,0.5,32.291v-3.659
	c0.076-0.686,0.153-1.449,0.229-2.135c0.229-2.592,0.992-5.337,2.214-7.929c0.305-0.762,1.145-0.915,1.755-0.915
	C6.072,17.653,6.836,18.721,6.836,19.712z"/>
<path fill-rule="evenodd" clip-rule="evenodd" fill="#7AC143" d="M57.904,18.416c1.68,3.049,2.596,8.539,2.596,12.123
	c0,3.811-0.84,8.233-2.596,11.893c-0.381,0.762-1.221,0.915-1.755,0.915c-1.374,0-2.061-1.144-2.061-2.135
	c0-0.381,1.755-5.337,1.984-7.548c0-0.457,0.077-0.991,0.153-1.524v-3.43c-0.153-1.144-0.305-2.516-0.611-3.736
	c-0.381-1.753-1.526-5.032-1.526-5.26c0-1.145,0.916-2.059,2.137-2.059C56.607,17.653,57.523,17.729,57.904,18.416z"/>
</svg>
