<?xml version="1.0" encoding="utf-8"?>
<!-- Generator: Adobe Illustrator 16.0.0, SVG Export Plug-In . SVG Version: 6.00 Build 0)  -->
<!DOCTYPE svg PUBLIC "-//W3C//DTD SVG 1.1//EN" "http://www.w3.org/Graphics/SVG/1.1/DTD/svg11.dtd">
<svg version="1.1" id="Layer_1" xmlns="http://www.w3.org/2000/svg" xmlns:xlink="http://www.w3.org/1999/xlink" x="0px" y="0px"
	 width="47.813px" height="48.107px" viewBox="0 0 47.813 48.107" enable-background="new 0 0 47.813 48.107" xml:space="preserve">
<path fill="#FFFFFF" d="M27.473,16.355c2.282,0,4.132,1.85,4.132,4.132v7.133c0,2.282-1.85,4.132-4.132,4.132H20.34
	c-2.282,0-4.13-1.85-4.13-4.132v-7.133c0-2.282,1.848-4.132,4.13-4.132H27.473 M27.473,14.854H20.34
	c-3.106,0.009-5.624,2.524-5.633,5.633v7.133c0.009,3.108,2.526,5.624,5.633,5.633h7.133c3.107-0.009,5.624-2.524,5.633-5.633
	v-7.133C33.097,17.379,30.58,14.863,27.473,14.854z"/>
<path fill="#FFFFFF" d="M28.814,18.046c-0.596,0-1.076,0.482-1.076,1.076s0.48,1.076,1.076,1.076c0.594,0,1.074-0.482,1.074-1.076
	S29.408,18.046,28.814,18.046L28.814,18.046z"/>
<path fill="#FFFFFF" d="M23.957,20.763c1.833-0.002,3.32,1.485,3.322,3.316c0,1.833-1.485,3.321-3.318,3.321
	c-1.834,0.002-3.32-1.484-3.322-3.315c0-0.002,0-0.004,0-0.006C20.643,22.249,22.126,20.767,23.957,20.763 M23.957,19.26
	c-2.663,0.006-4.817,2.169-4.812,4.832c0.005,2.663,2.167,4.815,4.83,4.811c2.661-0.004,4.813-2.162,4.812-4.823
	c0-2.661-2.16-4.819-4.822-4.819C23.963,19.26,23.959,19.26,23.957,19.26z"/>
</svg>
