<?xml version="1.0" encoding="utf-8"?>
<!-- Generator: Adobe Illustrator 16.0.0, SVG Export Plug-In . SVG Version: 6.00 Build 0)  -->
<!DOCTYPE svg PUBLIC "-//W3C//DTD SVG 1.1//EN" "http://www.w3.org/Graphics/SVG/1.1/DTD/svg11.dtd">
<svg version="1.1" id="LinkedIn_alt" xmlns="http://www.w3.org/2000/svg" xmlns:xlink="http://www.w3.org/1999/xlink" x="0px"
	 y="0px" width="48.021px" height="48.021px" viewBox="247.292 247.667 48.021 48.021"
	 enable-background="new 247.292 247.667 48.021 48.021" xml:space="preserve">
<path fill="#FFFFFF" d="M263.018,268.838h3.644v10.964h-3.644V268.838z M264.863,263.553c-1.246,0-2.061,0.818-2.061,1.894
	c0,1.052,0.791,1.895,2.014,1.895h0.023c1.271,0,2.062-0.843,2.062-1.895C266.878,264.371,266.11,263.553,264.863,263.553z
	 M275.607,268.58c-1.936,0-2.801,1.064-3.285,1.81v-1.552h-3.645c0.049,1.028,0,10.964,0,10.964h3.645v-6.123
	c0-0.328,0.023-0.654,0.121-0.89c0.264-0.654,0.863-1.332,1.869-1.332c1.318,0,1.846,1.006,1.846,2.479v5.866h3.645v-6.287
	C279.803,270.147,278.006,268.58,275.607,268.58z"/>
</svg>
