<?xml version="1.0" encoding="utf-8"?>
<!-- Generator: Adobe Illustrator 16.0.0, SVG Export Plug-In . SVG Version: 6.00 Build 0)  -->
<!DOCTYPE svg PUBLIC "-//W3C//DTD SVG 1.1//EN" "http://www.w3.org/Graphics/SVG/1.1/DTD/svg11.dtd">
<svg version="1.1" id="Layer_1" xmlns="http://www.w3.org/2000/svg" xmlns:xlink="http://www.w3.org/1999/xlink" x="0px" y="0px"
	 width="31px" height="24px" viewBox="0 0 31 24" enable-background="new 0 0 31 24" xml:space="preserve">
<path fill-rule="evenodd" clip-rule="evenodd" fill="#FFFFFF" d="M21.573,1.22c2.91,1.261,6.01,2.522,8.984,3.723
	C30.621,5.003,31,5.184,31,5.364v13.091c-0.443,0.721-1.392,0.9-2.024,1.141c-3.1,1.321-9.3,3.903-9.427,3.903
	c-0.19,0-7.465-3.063-11.071-4.624c-0.19-0.061-0.38-0.3-0.38-0.421V5.424c0.063-0.121,0.063-0.3,0.253-0.361
	C10.945,3.922,19.106,0.5,19.549,0.5C19.739,0.5,20.941,0.98,21.573,1.22z M28.596,5.543l-3.732,1.561l-8.984-3.782l3.669-1.502
	L28.596,5.543z M23.155,7.826l-3.606,1.501l-8.983-3.724l3.606-1.501L23.155,7.826z M6.453,6.385c0.126,0.06,0.253,0.3,0.253,0.419
	c0,0.542-0.506,0.662-0.696,0.662c-0.126,0-2.657-1.081-3.923-1.742c-0.189-0.06-0.253-0.3-0.253-0.421c0-0.36,0.253-0.6,0.633-0.6
	C2.91,4.703,5.884,6.024,6.453,6.385z M18.853,10.467v11.35L9.49,17.975V6.625L18.853,10.467z M29.671,17.915l-9.427,3.902V10.528
	l3.986-1.682v3.123c0.126,0.541,0.379,0.661,0.696,0.661s0.57-0.12,0.759-0.601V8.247l3.986-1.623V17.915z M6.453,10.829
	c0.126,0.06,0.253,0.36,0.253,0.48c0,0.361-0.316,0.661-0.633,0.661c-0.189,0-3.29-1.381-4.808-2.102
	c-0.253-0.061-0.316-0.361-0.316-0.48c0-0.36,0.253-0.601,0.633-0.601C1.771,8.787,4.871,9.988,6.453,10.829z M1.898,13.291
	c1.392,0.601,2.973,1.261,4.492,1.981c0.19,0.121,0.316,0.48,0.316,0.541c0,0.48-0.506,0.601-0.696,0.601
	c-0.126,0-1.139-0.481-1.582-0.662c-1.392-0.6-2.847-1.141-4.176-1.861C0.063,13.831,0,13.591,0,13.411
	c0-0.421,0.443-0.541,0.633-0.541C0.822,12.87,1.518,13.17,1.898,13.291z"/>
</svg>
