<?xml version="1.0" encoding="utf-8"?>
<!-- Generator: Adobe Illustrator 16.0.0, SVG Export Plug-In . SVG Version: 6.00 Build 0)  -->
<!DOCTYPE svg PUBLIC "-//W3C//DTD SVG 1.1//EN" "http://www.w3.org/Graphics/SVG/1.1/DTD/svg11.dtd">
<svg version="1.1" id="Layer_1" xmlns="http://www.w3.org/2000/svg" xmlns:xlink="http://www.w3.org/1999/xlink" x="0px" y="0px"
	 width="47.813px" height="48.107px" viewBox="0 0 47.813 48.107" enable-background="new 0 0 47.813 48.107" xml:space="preserve">
<path fill="#FFFFFF" d="M20.475,31.57c6.981,0,10.8-5.785,10.8-10.801c0-0.164,0-0.328-0.011-0.49
	c0.742-0.538,1.384-1.203,1.894-1.965c-0.693,0.307-1.428,0.508-2.181,0.597c0.793-0.474,1.387-1.221,1.67-2.1
	c-0.745,0.442-1.562,0.754-2.411,0.921c-0.718-0.763-1.72-1.195-2.768-1.195c-2.084,0-3.8,1.714-3.8,3.799
	c0,0.289,0.033,0.578,0.099,0.859c-3.051-0.153-5.896-1.597-7.822-3.967c-1.002,1.726-0.483,3.96,1.175,5.067
	c-0.604-0.018-1.195-0.181-1.724-0.475v0.048c0.001,1.8,1.281,3.364,3.046,3.721c-0.559,0.152-1.146,0.175-1.714,0.065
	c0.496,1.542,1.927,2.605,3.547,2.636c-1.345,1.056-3.005,1.63-4.715,1.628c-0.302,0-0.604-0.019-0.903-0.055
	c1.735,1.114,3.756,1.705,5.818,1.702"/>
</svg>
