<?xml version="1.0" encoding="utf-8"?>
<!-- Generator: Adobe Illustrator 16.0.0, SVG Export Plug-In . SVG Version: 6.00 Build 0)  -->
<!DOCTYPE svg PUBLIC "-//W3C//DTD SVG 1.1//EN" "http://www.w3.org/Graphics/SVG/1.1/DTD/svg11.dtd">
<svg version="1.1" id="Layer_1" xmlns="http://www.w3.org/2000/svg" xmlns:xlink="http://www.w3.org/1999/xlink" x="0px" y="0px"
	 width="38px" height="35px" viewBox="0 0 38 35" enable-background="new 0 0 38 35" xml:space="preserve">
<path fill-rule="evenodd" clip-rule="evenodd" fill="#FFFFFF" d="M37.026,15.124c0,8.23-7.033,14.704-15.631,14.704
	c-1.758,0-4.005-0.278-5.666-1.018c-0.88-0.278-1.954-0.739-2.833-1.387c-0.684-0.37-1.563-1.203-1.856-1.203
	c-0.195,0-0.684,0.463-0.684,0.741c0,0.276,0.977,0.739,0.977,1.387c0,0.831-1.758,1.941-2.637,2.959
	c-1.075,1.017-2.248,2.126-3.322,2.959c-0.684,0.555-0.977,0.462-1.661,0.462c-1.954,0-3.029-1.295-3.029-2.867
	c0-0.554-0.196-0.833,0.391-1.572c0.293-0.554,5.373-5.641,6.35-5.641c0.39,0,0.586,0.092,1.368,0.925
	c0.292-0.186,0.586-0.462,0.879-0.74c-1.759-1.758-3.81-6.01-3.81-8.138v-3.145C7.035,4.859,14.459,0.328,21.396,0.328
	C29.993,0.328,37.026,6.986,37.026,15.124z M34.877,15.124c0,7.12-5.959,12.762-13.482,12.762c-5.275,0-10.844-2.774-13.091-9.433
	c-0.195-0.74-0.391-2.034-0.391-2.219v-2.313c1.075-7.86,7.328-11.559,13.482-11.559C28.918,2.362,34.877,7.911,34.877,15.124z
	 M24.229,7.633c1.075,3.238,1.856,6.658,2.736,10.08c0.098,0,0.098,0.093,0.195,0.186c3.028-3.144,1.758-3.699,4.689-3.699
	c0.586,0,2.052-0.371,2.052,0.832c0,0.277-0.391,1.017-0.879,1.017h-1.759c-0.391,0.37-3.81,4.9-4.689,4.9
	c-0.391,0-0.781-0.092-0.879-0.462c-0.39-0.925-0.586-1.85-0.781-2.774c-0.391-1.85-0.879-3.699-1.466-5.548
	c-1.074,3.792-2.051,7.675-3.419,11.466c0,0.094-0.489,0.278-0.684,0.278c-0.293,0-0.684,0-0.879-0.37
	c-1.172-3.144-2.247-6.289-3.419-9.433c-1.661,3.421-1.075,2.959-3.518,2.959c-0.781,0-2.54,0.278-2.54-1.017
	c0-0.555,0.488-0.925,0.879-0.925h2.442c0.684-1.479,1.27-3.052,1.954-4.438c0.195-0.463,0.782-0.463,0.879-0.463
	c0.293,0,0.684,0.092,0.684,0.278c1.172,2.866,2.247,5.918,3.321,8.877l0.196,0.092c1.074-3.883,1.954-7.952,3.321-11.837
	c0.098-0.369,0.586-0.369,0.781-0.369C23.74,7.264,24.131,7.355,24.229,7.633z M8.793,28.349C8.5,28.532,4.3,32.787,3.713,32.787
	c-0.782,0-0.978-0.462-0.978-0.925c0-0.925,4.299-4.624,4.592-4.809C7.816,27.423,8.305,27.886,8.793,28.349z"/>
</svg>
