<?xml version="1.0" encoding="utf-8"?>
<!-- Generator: Adobe Illustrator 16.0.0, SVG Export Plug-In . SVG Version: 6.00 Build 0)  -->
<!DOCTYPE svg PUBLIC "-//W3C//DTD SVG 1.1//EN" "http://www.w3.org/Graphics/SVG/1.1/DTD/svg11.dtd">
<svg version="1.1" id="Layer_1" xmlns="http://www.w3.org/2000/svg" xmlns:xlink="http://www.w3.org/1999/xlink" x="0px" y="0px"
	 width="29px" height="37px" viewBox="0 0 29 37" enable-background="new 0 0 29 37" xml:space="preserve">
<path fill-rule="evenodd" clip-rule="evenodd" fill="#FFFFFF" d="M17.958,7.704c0,0.581-0.16,1.287-0.24,1.827
	c-0.479-0.416-1.039-0.705-1.519-0.705c0.08-0.458,0.12-0.998,0.12-1.122c0-2.866-2.398-5.191-5.037-5.191
	c-2.838,0-4.997,2.45-4.997,5.233c0,1.121,0.439,1.993,0.439,2.118v2.907c-1.079-0.79-2.078-3.322-2.078-4.402V7.122
	c0.4-4.069,3.637-6.312,6.635-6.312C14.959,0.81,17.958,3.925,17.958,7.704z M14.28,6.624c0.04,0.166,0.2,0.581,0.2,0.706v3.863
	c0,0-0.04,0.04,0.08,0.04c0.08,0,0.16-0.124,0.24-0.124c0.359-0.125,0.839-0.25,1.279-0.25c1.12,0,2.479,0.665,2.999,2.284
	c0.52-0.29,1.239-0.499,1.758-0.499c1.239,0,2.398,0.707,3.038,2.285c0.6-0.416,1.159-0.499,1.679-0.499
	c1.519,0,3.038,0.997,3.198,3.197l-0.04,9.094c-0.12,0.955-0.16,1.869-0.36,2.866c-0.319,1.453-0.879,3.238-2.558,4.692
	c-1.719,1.453-5.196,1.91-7.195,1.91c-1.519,0-3.917-0.25-5.157-0.789c-0.439-0.166-0.879-0.415-1.319-0.665
	c-2.078-1.205-4.236-3.945-6.235-5.938c-1.679-1.62-3.478-3.488-5.116-5.315c-0.439-0.498-0.52-1.287-0.52-1.786
	c0-0.083,0.04-0.664,0.12-0.914c0.599-2.076,1.918-2.741,3.357-2.741c2.278,0,2.598,1.579,4.357,2.948V7.371
	c0.36-2.035,1.799-2.948,3.237-2.948C12.361,4.423,13.761,4.962,14.28,6.624z M12.801,7.87v11.502c0.2,0.54,0.479,0.748,0.839,0.748
	c0.4,0,0.64-0.249,0.879-0.665v-4.983c0.2-1.163,0.759-1.495,1.479-1.495c0.759,0,1.559,0.499,1.559,1.453v6.395
	c0.2,0.54,0.479,0.706,0.839,0.706c0.36,0,0.84-0.207,0.879-0.747v-4.651c0.12-0.913,0.76-1.371,1.439-1.371
	c0.64,0,1.599,0.499,1.599,1.413v5.689c0.2,0.54,0.479,0.747,0.839,0.747c0.52,0,0.919-0.457,0.879-1.08V17.67
	c0.24-0.997,0.839-1.246,1.479-1.246c0.52,0,0.879,0.041,1.279,0.623c0.12,0.125,0.24,0.457,0.24,0.581v9.426
	c-0.16,2.077-0.36,4.941-3.078,6.354c-1.318,0.664-2.758,0.831-3.997,0.997l-1.319,0.041c-1.159-0.041-2.397-0.125-3.557-0.415
	c-1.08-0.249-2.238-0.706-3.238-1.619c-1.08-0.956-2.159-2.118-3.198-3.239c-1.958-1.994-4.197-4.194-6.236-6.437
	c-0.279-0.291-0.319-0.706-0.319-0.997c0-0.166,0.16-0.706,0.2-0.789c0.399-0.748,1.039-0.997,1.599-0.997c0.12,0,0.56,0,0.8,0.167
	c0.399,0.249,0.759,0.706,1.119,1.038c1.24,1.329,2.599,2.699,3.918,4.068l0.04-17.273C9.843,7.039,10.723,6.5,11.322,6.5
	C12.002,6.5,12.801,7.122,12.801,7.87z"/>
</svg>
