<?xml version="1.0" encoding="utf-8"?>
<!-- Generator: Adobe Illustrator 16.0.0, SVG Export Plug-In . SVG Version: 6.00 Build 0)  -->
<!DOCTYPE svg PUBLIC "-//W3C//DTD SVG 1.1//EN" "http://www.w3.org/Graphics/SVG/1.1/DTD/svg11.dtd">
<svg version="1.1" id="Layer_1" xmlns="http://www.w3.org/2000/svg" xmlns:xlink="http://www.w3.org/1999/xlink" x="0px" y="0px"
	 width="37px" height="40px" viewBox="0 0 37 40" enable-background="new 0 0 37 40" xml:space="preserve">
<path fill-rule="evenodd" clip-rule="evenodd" fill="#FFFFFF" d="M22.288,3.943c0,0.188-0.099,0.753-0.197,1.131
	c1.574,0.941,3.247,1.883,4.919,2.73c1.378,0.753,6.69,3.39,6.69,4.144c0,0.471-0.59,0.754-0.787,0.754s-1.476-0.754-2.165-1.131
	c-0.098,0.095-0.197,0.188-0.197,0.471c0,1.225,1.279,2.167,2.361,2.167c1.279,0,2.361-1.036,2.361-2.26
	c0-0.471-0.294-1.413-1.082-1.883c-0.492-0.283-1.181-0.377-1.575-0.472c-0.492-0.093-0.394-0.565-0.394-0.565
	c0-0.753,0.492-0.753,0.788-0.753c2.262,0,3.738,1.978,3.738,3.673c0,1.413-0.984,3.107-3.05,3.673v8.758
	c2.066,0.471,3.05,2.166,3.05,3.579c0,2.165-1.87,3.767-3.837,3.767c-0.984,0-2.066-0.565-2.952-1.225l-7.772,4.426
	c0,0.377,0.099,0.942,0.099,1.13c0,2.354-1.968,3.673-3.837,3.673c-2.459,0-3.739-1.789-3.739-3.673c0-0.283,0-0.753,0.197-1.13
	c-1.574-0.942-3.345-1.883-4.919-2.825c-1.476-0.848-6.69-3.391-6.69-4.05c0-0.565,0.493-0.753,0.689-0.753
	c0.295,0,1.574,0.753,2.263,1.13c0.098-0.094,0.196-0.283,0.196-0.471c0-1.319-1.377-2.166-2.361-2.166
	c-1.377,0-2.36,0.941-2.36,2.26c0,0.471,0.196,1.224,1.082,1.79c0.295,0.281,1.181,0.281,1.574,0.47
	c0.295,0.188,0.394,0.565,0.394,0.659c0,0.66-0.492,0.754-0.885,0.754c-2.263,0-3.64-2.073-3.64-3.767
	c0-1.413,0.885-3.108,3.049-3.579v-8.758c-2.164-0.565-3.049-2.26-3.049-3.673c0-2.166,1.87-3.673,3.836-3.673
	c0.886,0,1.968,0.471,2.854,1.225l7.772-4.426c0.099-0.378,0-0.943,0-1.225c0-2.072,1.574-3.578,3.739-3.578
	C20.91,0.271,22.288,2.059,22.288,3.943z M20.713,3.943c0,2.825-3.05,1.413-3.05,2.92c0,0.752,0.688,0.847,0.984,0.847
	c0.689,0,1.968-0.377,2.755-1.224l7.772,4.426c-0.099,0.377-0.197,0.848-0.197,1.036c0,1.507,1.083,3.014,3.148,3.767v12.62
	c0.295,0.282,0.492,0.471,0.787,0.471c0.294,0,0.59-0.095,0.885-0.66v-2.072c0.984,0.188,1.377,1.318,1.377,1.978
	c0,1.13-1.082,2.167-2.263,2.167s-2.263-1.037-2.263-2.167c0-0.283,0.492-1.318,0.492-1.507c0-0.376-0.492-0.848-0.886-0.848
	c-0.983,0-1.279,1.978-1.279,2.354c0,0.188,0.197,0.754,0.197,1.036c0,0.188-7.379,4.049-11.019,6.216
	c-0.295,0.093-0.492,0.47-0.492,0.753c0,0.471,0.492,0.753,0.787,0.753c0.492,0,1.968-0.941,2.263-1.036v0.66
	c-0.491,1.319-1.476,1.79-2.263,1.79c-1.377,0-2.165-1.036-2.165-2.167c0-2.825,3.05-1.506,3.05-3.014
	c0-0.753-0.787-0.753-0.984-0.753c-0.787,0-1.968,0.282-2.853,1.224l-7.674-4.426c0.099-0.282,0.197-0.848,0.197-1.036
	c0-1.413-1.18-3.391-3.148-3.767v-12.62c-0.394-0.377-0.59-0.472-0.788-0.472c-0.394,0-0.885,0.283-0.885,0.66v2.072
	c-1.082-0.283-1.377-1.318-1.377-1.978c0-1.13,1.082-2.166,2.262-2.166c1.378,0,2.263,1.224,2.263,2.166
	c0,0.283-0.492,1.225-0.492,1.507c0,0.376,0.492,0.848,0.885,0.848c0.885,0,1.279-1.978,1.279-2.354
	c0-0.282-0.197-0.847-0.197-1.036c0-0.282,7.28-4.144,11.019-6.309c0.197-0.095,0.492-0.472,0.492-0.66
	c0-0.565-0.591-0.753-0.886-0.753c-0.492,0-1.967,0.847-2.165,1.036V3.472c0.394-1.318,1.377-1.695,2.165-1.695
	C19.828,1.777,20.713,2.813,20.713,3.943z M23.468,15.432c0,0.565-0.59,0.848-0.787,0.848c-0.099,0-0.688-0.094-0.688-0.471
	c-0.197-2.448-1.87-3.579-3.542-3.579c-1.476,0-3.443,1.319-3.443,3.013v2.637c1.279-0.565,2.558-0.942,3.443-0.942
	c3.739,0,6.395,2.92,6.395,6.122c0,3.579-3.148,6.121-6.395,6.121c-3.739,0-6.296-3.013-6.296-6.121
	c0-1.318,0.197-2.448,1.377-3.767v-4.05c0.197-2.825,2.755-4.426,4.919-4.426C21.107,10.818,23.468,12.984,23.468,15.432z
	 M23.271,23.061c0,2.637-2.066,4.614-4.821,4.614c-2.853,0-4.722-2.26-4.722-4.614c0-2.543,2.066-4.521,4.722-4.521
	S23.271,20.518,23.271,23.061z M19.238,23.061c0,0.471,0.197,1.695-0.787,1.695c-0.197,0-0.688-0.377-0.688-0.565v-2.26
	c0.098-0.565,0.492-0.471,0.688-0.471C19.435,21.46,19.238,22.684,19.238,23.061z"/>
</svg>
