<?xml version="1.0" encoding="utf-8"?>
<!-- Generator: Adobe Illustrator 16.0.0, SVG Export Plug-In . SVG Version: 6.00 Build 0)  -->
<!DOCTYPE svg PUBLIC "-//W3C//DTD SVG 1.1//EN" "http://www.w3.org/Graphics/SVG/1.1/DTD/svg11.dtd">
<svg version="1.1" id="Layer_1" xmlns="http://www.w3.org/2000/svg" xmlns:xlink="http://www.w3.org/1999/xlink" x="0px" y="0px"
	 width="34px" height="32px" viewBox="0 0 34 32" enable-background="new 0 0 34 32" xml:space="preserve">
<path fill-rule="evenodd" clip-rule="evenodd" fill="#FFFFFF" d="M30.138,0.733c0.956-0.064,2.525,0.649,3.14,1.882
	c0.136,0.324,0.41,0.778,0.41,0.973v16.346c-1.092,3.114-2.935,2.919-4.982,2.919c-0.614,0-2.184,0.194-2.184-0.714
	c0-0.194,0.137-0.648,0.546-0.648h3.413c0.683,0,1.843-1.167,1.843-1.751V3.782c-0.205-0.778-1.229-1.686-1.843-1.686H3.452
	C2.633,2.291,1.678,3.134,1.678,3.847v15.828c-0.069,0.843,1.229,1.816,1.774,1.816h3.413c0.546,0.129,0.614,0.454,0.614,0.648
	c0,0.908-2.047,0.714-2.252,0.714c-0.136,0-1.365-0.065-2.047-0.13c-1.16-0.065-2.867-1.751-2.867-2.725V3.588
	C0.38,2.161,2.428,0.604,3.793,0.733H30.138z M15.737,11.437c0.683,0.454,0.751,0.389,1.229,0.389c0.205,0,0.683-0.065,1.024-0.26
	C20.993,9.75,29.592,3.523,30.07,3.523c0.546,0,0.75,0.454,0.75,0.648c0,0.519-2.32,1.946-2.389,1.946
	c-1.433,1.038-2.935,2.076-4.436,3.049c-2.525,1.492-4.846,4.022-7.03,4.022c-0.614,0-1.434-0.195-1.911-0.584
	c-3.89-2.595-7.712-5.19-11.466-7.849C3.315,4.626,3.179,4.237,3.179,4.171c0-0.389,0.273-0.648,0.683-0.648
	C4.408,3.523,12.734,9.556,15.737,11.437z M11.847,12.475c0,0.519-0.478,0.714-1.092,1.362c-1.229,1.103-6.28,6.227-6.894,6.227
	c-0.546,0-0.683-0.519-0.683-0.714c0-0.389,0.683-0.908,1.16-1.297c2.047-2.075,4.231-4.151,6.484-6.163
	c0-0.064,0.137-0.064,0.341-0.064C11.642,11.826,11.847,12.15,11.847,12.475z M24.201,12.864c0.272,0.26,0.75,0.714,1.16,1.103
	c1.707,1.622,3.618,3.373,5.324,5.124c0.068,0,0.136,0.13,0.136,0.325c0,0.454-0.546,0.648-0.75,0.648c-0.137,0-0.273,0-0.341-0.13
	c-2.525-2.27-5.051-4.67-7.439-7.005c-0.137-0.13-0.137-0.325-0.137-0.455c0-0.389,0.137-0.648,0.683-0.648
	C23.245,11.826,23.518,12.215,24.201,12.864z M24.951,23.567c0,4.216-3.549,7.589-7.985,7.589c-2.593,0-5.801-1.427-7.303-4.54
	c-0.205-0.454-0.614-1.687-0.614-2.206v-1.751c0.75-4.541,4.437-6.681,7.917-6.681C21.607,15.978,24.951,19.48,24.951,23.567z
	 M23.518,23.567c0,3.503-3.14,6.162-6.552,6.162c-1.569,0-2.935-0.454-4.573-1.816c-0.751-0.583-1.911-2.789-1.911-3.762v-1.167
	c0.409-3.633,3.549-5.644,6.484-5.644C20.583,17.34,23.518,20.064,23.518,23.567z M17.717,19.35v5.579
	c0,0.195-0.137,0.195-0.205,0.39c-0.136,0.259-0.41,0.259-0.546,0.259c-0.205,0-0.683-0.194-0.683-0.518v-5.773
	c0.136-0.584,0.478-0.519,0.683-0.519C17.375,18.767,17.717,19.091,17.717,19.35z M17.717,27.653c0,0.519-0.546,0.713-0.751,0.713
	c-0.546,0-0.683-0.519-0.683-0.713c0-0.454,0.478-0.583,0.683-0.583C17.375,27.07,17.717,27.329,17.717,27.653z"/>
</svg>
