<?xml version="1.0" encoding="utf-8"?>
<!-- Generator: Adobe Illustrator 16.0.0, SVG Export Plug-In . SVG Version: 6.00 Build 0)  -->
<!DOCTYPE svg PUBLIC "-//W3C//DTD SVG 1.1//EN" "http://www.w3.org/Graphics/SVG/1.1/DTD/svg11.dtd">
<svg version="1.1" id="Layer_1" xmlns="http://www.w3.org/2000/svg" xmlns:xlink="http://www.w3.org/1999/xlink" x="0px" y="0px"
	 width="38px" height="38px" viewBox="0 0 38 38" enable-background="new 0 0 38 38" xml:space="preserve">
<path fill-rule="evenodd" clip-rule="evenodd" fill="#FFFFFF" d="M36.013,0.832c0.641-0.104,1.654,0.986,1.654,1.662v3.011
	c-0.106,1.558-1.76,2.648-2.934,2.648c-0.267,0-1.013-0.26-1.227-0.312c-0.586-0.104-1.653-1.506-1.653-1.973V2.233
	C31.96,1.61,32.76,0.832,33.4,0.832H36.013z M25.667,1.87c0,0.104-0.106,0.207-0.16,0.416c-0.373,0.934-0.48,1.973-0.48,2.908
	c0,2.959,1.6,6.594,5.707,8.307C30.84,13.552,31,13.863,31,14.019c0,0.468-0.373,0.675-0.694,0.675
	c-0.853,0-3.466-1.921-3.946-2.596c-0.427-0.572-0.907-1.091-1.227-1.61c-0.48-0.778-1.44-3.115-1.44-4.205V4.154
	c0.106-0.363,0.213-2.908,1.227-2.908C25.293,1.247,25.667,1.454,25.667,1.87z M36.227,2.544v2.959
	c-0.214,0.779-0.854,1.247-1.494,1.247c-0.586,0-1.493-0.52-1.493-1.194v-2.96c0.053-0.103,0.053-0.259,0.16-0.311
	c0.267-0.26,0.96-0.104,1.333-0.104C34.839,2.182,36.227,2.025,36.227,2.544z M29.346,2.908c0,0-0.267,1.298-0.267,1.869
	c0,1.766,0.694,3.947,3.147,5.14c0.16,0.052,0.32,0.468,0.32,0.624c0,0.415-0.48,0.623-0.693,0.623
	c-0.267,0-0.747-0.312-1.014-0.468c-1.92-1.246-2.72-3.011-3.04-4.465c0-0.104-0.053-0.208-0.053-0.311V3.791
	c0.267-0.624-0.053-1.506,0.907-1.506C29.08,2.285,29.346,2.493,29.346,2.908z M22.68,11.423c0,1.142-0.586,2.596-2.026,3.583
	c0.053,0.104,2.453,2.907,2.667,2.907h1.92c1.653,0.104,2.4,1.401,2.4,2.439c0,1.143-1.12,2.44-2.347,2.44h-3.307
	c-1.014,0-2.027-1.09-2.987-2.024c-0.213,0.26-1.6,2.181-1.6,2.804c0,0.675,1.706,3.427,1.813,3.687
	c0.534,0.883,1.067,1.921,1.601,2.907c0.586,1.091,1.28,2.181,1.813,3.324c0.16,0.312,0.267,0.935,0.267,1.038
	c0,1.558-1.387,2.648-2.72,2.648c-0.694,0-1.707-0.26-2.293-1.246c-1.493-2.44-2.934-4.933-4.373-7.373
	c-0.107,0.259-0.267,0.519-0.267,0.831c-0.374,2.492-2.347,3.738-4.213,3.738L2.84,33.073c-0.8,0.104-2.506-1.298-2.506-2.232
	v-1.194c0.16-1.246,1.6-2.233,2.667-2.233h5.173c0.053-0.519,0.16-1.09,0.213-1.609c0.106-0.467,0.16-0.986,0.213-1.453
	c0.054-0.311,0.16-0.675,0.16-1.039c0.053-1.765,1.333-3.479,2.347-5.088c-0.106-0.104-0.213-0.155-0.32-0.155
	c-2.133,0-1.974,3.322-4.694,3.322c-1.44,0-2.453-1.297-2.453-2.44c0-0.415,0.16-1.09,0.426-1.402
	C5.507,15.836,7,13.137,9.08,12.877c0.213,0,0.587-0.052,0.854-0.104l4.533-0.052c-0.107-0.208-0.213-0.571-0.213-0.675v-1.194
	c0.48-2.493,2.347-3.531,4.16-3.531C20.813,7.321,22.68,9.243,22.68,11.423z M21.24,11.423c0,2.648-2.4,2.181-2.4,3.375
	c0,0.623,1.547,2.025,1.92,2.44c0.479,0.572,0.959,1.143,1.6,1.662c0.213,0.208,0.693,0.415,0.854,0.415h2.08
	c0.693,0.156,0.907,0.572,0.907,1.038c0,0.416-0.32,1.039-0.907,1.039h-3.36c-1.601-0.674-1.867-2.024-2.987-2.024
	c-0.107,0-0.534,0.052-0.693,0.208c-0.907,0.831-1.6,2.077-2.081,3.011c-0.16,0.259-0.213,0.83-0.213,0.986
	c0,0.104,0.053,0.623,0.16,0.935c0.321,0.727,0.747,1.454,1.173,2.181c1.28,2.336,2.667,4.776,4,7.269
	c0.106,0.104,0.16,0.416,0.16,0.571c0,0.83-0.586,1.246-1.28,1.246c-0.267,0-0.373,0.051-0.747-0.26
	c-0.533-0.416-0.746-1.039-1.066-1.505c-1.44-2.44-2.88-4.985-4.427-7.425c-0.213-0.415-0.426-0.363-0.693-0.363
	c-0.534,0-0.854,0.26-0.96,1.039c-0.053,0.415-0.16,0.883-0.32,1.35c-0.16,0.624-0.213,1.454-0.693,2.077
	c-0.213,0.26-0.747,0.728-1.12,0.831C9.934,31.568,9.56,31.724,9.4,31.724H3.161c-1.067-0.26-1.44-0.675-1.44-1.453
	c0-0.571,0.427-1.455,1.226-1.455h5.44c1.013-0.207,1.227-1.402,1.28-1.972c0.106-0.571,0.213-1.143,0.267-1.713
	c0.106-0.571,0.213-1.143,0.267-1.714c0.053-0.623,0.266-1.505,0.64-2.077c0.267-0.467,1.76-2.491,1.76-3.271
	c0-0.52-0.267-1.142-1.067-1.351c-0.213-0.051-0.586,0-0.693,0c-0.907,0-1.813,0.104-2.72,1.402
	c-0.427,0.571-0.96,1.454-1.547,1.766c-0.106,0.051-0.32,0.103-0.427,0.103c-0.746,0-1.067-0.52-1.067-1.039
	c0-0.727,2.454-3.738,3.147-4.205c0.213-0.208,1.067-0.571,1.547-0.571h5.707c0.426-0.208,0.746-0.624,0.746-0.883
	c0-0.364-0.586-0.987-0.586-1.87c0-1.506,1.173-2.751,2.827-2.751C20.013,8.671,21.24,9.969,21.24,11.423z"/>
</svg>
