<?xml version="1.0" encoding="utf-8"?>
<!-- Generator: Adobe Illustrator 16.0.0, SVG Export Plug-In . SVG Version: 6.00 Build 0)  -->
<!DOCTYPE svg PUBLIC "-//W3C//DTD SVG 1.1//EN" "http://www.w3.org/Graphics/SVG/1.1/DTD/svg11.dtd">
<svg version="1.1" id="Layer_1" xmlns="http://www.w3.org/2000/svg" xmlns:xlink="http://www.w3.org/1999/xlink" x="0px" y="0px"
	 width="36px" height="32px" viewBox="0 0 36 32" enable-background="new 0 0 36 32" xml:space="preserve">
<path fill-rule="evenodd" clip-rule="evenodd" fill="#FFFFFF" d="M22.186,3.535c0.475,0.917,1.036,1.792,1.554,2.751
	c0.259,0.417,0.431,0.959,0.733,1.459c1.208,2.042,2.244,3.918,3.28,5.961c0.043,0.042,0.086,0.042,0.086,0.083
	c2.33,4.169,4.661,8.254,6.818,12.506c0.216,0.376,0.259,1.126,0.259,1.251c0,1.042-0.69,2.627-2.028,3.336
	c-0.475,0.25-1.294,0.583-1.856,0.583H4.837c-0.345-0.042-0.777-0.125-1.079-0.25c-0.259-0.083-0.517-0.208-0.69-0.333
	c-0.863-0.418-1.727-1.46-1.856-2.168c0-0.126-0.129-0.375-0.129-0.459v-1.417c0.043-0.417,0.346-1.042,0.561-1.417
	c1.123-2.085,2.288-4.086,3.41-6.128c1.51-2.752,3.021-5.587,4.531-8.338c0.561-1.042,1.208-2.043,1.769-3.085
	c0.173-0.417,0.647-1.001,0.82-1.418c0.129-0.25,0.173-0.584,0.345-0.833c1.64-2.918,2.374-5.086,5.395-5.086
	C19.64,0.533,21.021,1.2,22.186,3.535z M19.683,4.077c1.079,2,2.201,4.085,3.323,6.128c1.165,2.126,2.33,4.253,3.496,6.379
	c1.596,2.96,3.323,5.878,4.919,8.879c0.173,0.292,0.345,0.709,0.561,1.084c0.216,0.334,0.388,0.667,0.388,0.959
	c0,0.125-0.086,0.501-0.216,0.75c-0.086,0.125-0.215,0.292-0.345,0.376c-0.259,0.208-0.69,0.375-0.82,0.375H4.837
	c-0.82-0.167-1.294-1-1.294-1.542c0-0.459,1.079-2.251,1.294-2.627c0.733-1.417,1.597-2.876,2.374-4.294
	c1.813-3.293,3.583-6.628,5.395-9.88c0.95-1.751,1.856-3.461,2.848-5.128c0.82-1.375,0.907-2.585,2.46-2.585
	C18.604,2.951,19.251,3.243,19.683,4.077z"/>
<path fill-rule="evenodd" clip-rule="evenodd" fill="#FFFFFF" d="M20.028,10.747l-0.302,3.877c-0.086,0.917-0.216,1.793-0.302,2.668
	c-0.129,1.417-0.086,2.918-0.388,4.378c0,0.125-0.259,0.166-0.345,0.25c-0.345,0.167-0.475,0.167-0.734,0.167
	c-0.388,0-1.079-0.167-1.122-0.458c-0.086-0.458-0.129-0.959-0.172-1.459c-0.259-2.876-0.733-8.588-0.733-8.671v-1.209
	c0.388-1.125,1.294-1.376,2.028-1.376C19.079,8.913,20.028,9.705,20.028,10.747z"/>
<path fill-rule="evenodd" clip-rule="evenodd" fill="#FFFFFF" d="M18.906,23.587c0.604,0.333,0.82,1.083,0.82,1.459
	c0,0.959-0.82,1.751-1.77,1.751c-0.474,0-1.208-0.292-1.553-0.875c-0.086-0.126-0.173-0.376-0.173-0.46v-0.792
	c0.303-1,0.993-1.25,1.726-1.25C18.346,23.42,18.518,23.379,18.906,23.587z"/>
</svg>
