<?xml version="1.0" encoding="utf-8"?>
<!-- Generator: Adobe Illustrator 16.0.0, SVG Export Plug-In . SVG Version: 6.00 Build 0)  -->
<!DOCTYPE svg PUBLIC "-//W3C//DTD SVG 1.1//EN" "http://www.w3.org/Graphics/SVG/1.1/DTD/svg11.dtd">
<svg version="1.1" id="Layer_1" xmlns="http://www.w3.org/2000/svg" xmlns:xlink="http://www.w3.org/1999/xlink" x="0px" y="0px"
	 width="35px" height="31px" viewBox="0 0 35 31" enable-background="new 0 0 35 31" xml:space="preserve">
<path fill-rule="evenodd" clip-rule="evenodd" fill="#FFFFFF" d="M17.462,4.271c2.463-2.807,5.041-3.583,7.58-3.583
	c5.609,0,9.74,4.469,9.74,9.604c0,1.331-0.265,2.586-0.606,3.917c-0.151,0.517-0.417,1.108-0.645,1.699
	c-1.288,3.324-5.836,7.424-9.209,9.678c-2.122,1.403-4.32,2.807-6.405,4.58c-0.151,0.111-0.341,0.148-0.455,0.148
	c-0.076,0-0.265-0.037-0.341-0.111c-0.986-0.739-1.895-1.515-2.842-2.18c-1.44-0.998-2.918-1.995-4.396-2.992
	c-2.88-1.921-6.556-5.356-7.958-8.164h1.592c3.448,5.504,9.322,8.164,13.984,11.931c4.547-3.768,10.346-6.354,13.87-11.783
	c1.327-2.032,1.895-4.211,2.046-6.28V9.774c-0.492-5.023-4.509-7.756-8.413-7.756c-1.023,0-2.008,0.073-2.956,0.517
	c-0.303,0.111-0.606,0.259-0.871,0.407c-0.834,0.442-1.744,1.107-2.463,1.994c-0.266,0.296-0.569,0.702-0.872,0.998
	c-0.114,0.074-0.265,0.111-0.379,0.111c-0.113,0-0.417-0.111-0.455-0.185c-2.273-2.992-4.624-3.841-7.049-3.841
	c-4.813,0-8.375,3.841-8.375,8.237c0,0.813,0.114,1.736,0.265,2.512c-0.038,0.038-0.113,0.038-1.364,0.038
	c-0.114-0.555-0.265-1.589-0.265-1.663V9.516c0.606-5.8,5.268-8.828,9.74-8.828C12.384,0.688,15.075,1.463,17.462,4.271z
	 M12.838,5.674c0.303,0.406,0.228,0.923,0.341,1.44c0.303,1.515,0.568,3.14,0.872,4.691c0.379,2.142,0.834,4.359,1.251,6.538
	c0.909-2.179,1.705-4.47,2.69-6.649c0.038-0.111,0.227-0.185,0.341-0.222c0-0.037,0.076,0,0.189,0c0.228,0,0.379-0.074,0.531,0.259
	c0.72,1.33,1.137,2.844,1.706,4.248c0.076-0.148,1.023-1.81,1.402-1.81h3.79c0.379-0.628,0.833-0.665,1.212-0.665
	c0.834,0,1.402,0.627,1.402,1.33c0,0.775-0.682,1.33-1.402,1.33c-0.417,0-0.909-0.185-1.174-0.665h-3.26
	c-0.303,0.443-0.606,0.923-0.909,1.367c-0.303,0.369-0.568,1.329-1.251,1.329c-0.379,0-0.644-0.405-0.758-0.775
	c-0.076-0.369-0.265-0.702-0.379-0.997c-0.265-0.776-0.606-1.588-0.91-2.364c-0.947,2.401-1.895,4.839-2.918,7.24
	c-0.076,0.185-0.341,0.259-0.568,0.259c-0.682,0-0.644-0.665-0.758-1.071c-0.076-0.333-0.114-0.739-0.19-1.034
	c-0.606-3.251-1.212-6.538-1.818-9.789c-0.607,2.696-1.175,5.43-1.782,8.127c-0.038,0.184-0.378,0.405-0.606,0.405
	c-0.644,0-0.682-0.665-0.909-1.07c-0.152-0.37-0.265-0.776-0.417-1.108c-0.265-0.702-0.531-1.441-0.834-2.179
	c-0.151,0.258-0.303,0.554-0.455,0.813C7.154,14.798,6.964,15.5,6.51,15.5H1.432c-0.417-0.074-0.531-0.443-0.531-0.665
	s0.151-0.665,0.493-0.665h4.585c0.228-0.369,0.341-0.813,0.606-1.182c0.455-0.628,0.455-1.515,1.213-1.515
	c0.341,0,0.606,0.222,0.758,0.739c0.076,0.333,0.228,0.665,0.379,0.998c0.228,0.591,0.493,1.219,0.758,1.847
	c0.228-0.998,0.455-2.032,0.645-3.066c0.228-0.997,0.455-2.032,0.644-3.066c0.228-0.886,0.417-1.81,0.568-2.696
	c0.114-0.591,0.303-0.813,0.721-0.813C12.536,5.416,12.611,5.341,12.838,5.674z"/>
</svg>
