<?xml version="1.0" encoding="utf-8"?>
<!-- Generator: Adobe Illustrator 16.0.0, SVG Export Plug-In . SVG Version: 6.00 Build 0)  -->
<!DOCTYPE svg PUBLIC "-//W3C//DTD SVG 1.1//EN" "http://www.w3.org/Graphics/SVG/1.1/DTD/svg11.dtd">
<svg version="1.1" id="Layer_1" xmlns="http://www.w3.org/2000/svg" xmlns:xlink="http://www.w3.org/1999/xlink" x="0px" y="0px"
	 width="37px" height="30px" viewBox="0 0 37 30" enable-background="new 0 0 37 30" xml:space="preserve">
<path fill-rule="evenodd" clip-rule="evenodd" fill="#FFFFFF" d="M25.983,7.574c0,2.198-1.768,5.416-2.927,7.399l6.738,0.054
	c1.38,0.054,1.436,1.769,1.877,2.627c0.497,1.019,0.883,2.145,1.325,3.217c0.718,1.715,3.038,7.078,3.038,7.507
	c0,0.483-0.387,1.233-1.16,1.233H2.015c-0.773-0.16-1.049-0.697-1.049-1.233c0-0.483,1.767-4.504,2.099-5.362
	c1.049-2.467,1.988-5.04,3.147-7.507c0.166-0.482,0.663-0.482,0.994-0.482l6.738-0.054c-0.552-0.965-2.927-5.201-2.927-6.756V6.983
	c0.498-4.29,4.197-6.596,7.456-6.596C22.559,0.388,25.983,3.659,25.983,7.574z M23.498,7.574c0,2.519-3.866,8.257-4.97,9.973
	c-1.988-2.627-3.589-5.523-4.694-8.258c-0.11-0.375-0.332-1.126-0.332-1.233V7.037c0.387-2.788,2.817-4.236,4.971-4.236
	C21.233,2.801,23.498,4.892,23.498,7.574z M20.958,7.681c0,1.34-1.105,2.412-2.485,2.412c-1.491,0-2.43-1.233-2.43-2.412
	c0-1.395,1.049-2.413,2.43-2.413C19.963,5.268,20.958,6.447,20.958,7.681z M15.435,17.439l3.038,4.558l3.092-4.558h7.4l3.976,9.759
	H4.059l3.976-9.759H15.435z"/>
</svg>
