<?xml version="1.0" encoding="utf-8"?>
<!-- Generator: Adobe Illustrator 16.0.0, SVG Export Plug-In . SVG Version: 6.00 Build 0)  -->
<!DOCTYPE svg PUBLIC "-//W3C//DTD SVG 1.1//EN" "http://www.w3.org/Graphics/SVG/1.1/DTD/svg11.dtd">
<svg version="1.1" id="Layer_1" xmlns="http://www.w3.org/2000/svg" xmlns:xlink="http://www.w3.org/1999/xlink" x="0px" y="0px"
	 width="19px" height="31px" viewBox="0 0 19 31" enable-background="new 0 0 19 31" xml:space="preserve">
<path fill-rule="evenodd" clip-rule="evenodd" fill="#FFFFFF" d="M13.709,1.689c0.249,0.599,0.374,1.397,0.498,2.128
	c0.125,0.932,1.245,1.529,2.055,2.328c0.934,0.998,1.183,2.128,1.183,3.391c1.307-0.066,1.121,1.729,1.121,2.328
	c0,0.997,0.187,1.995-1.121,2.459v1.73c0.125,0.066,0.56,0.265,0.56,0.599v3.657c-0.187,0.332-0.436,0.466-0.56,0.599v1.33
	c-0.062,0.2-0.125,0.399-0.125,0.598c0,1.264-1.868,2.461-2.801,3.525c-0.374,0.399-0.312,0.931-0.436,1.396
	c-0.062,0.399-0.125,0.998-0.374,1.53c-0.56,1.329-3.486,1.196-4.731,1.196c-1.058,0-4.295,0-4.731-1.196
	c-0.249-0.665-0.374-1.397-0.498-2.129c-0.249-1.596-2.615-2.194-2.926-3.724c-0.063-0.332-0.249-0.997-0.249-1.131V8.672
	C0.636,8.54,0.636,8.273,0.636,8.141c0.125-1.396,1.868-2.527,2.801-3.525c0.374-0.398,0.312-0.931,0.436-1.396
	C3.936,2.954,4.06,2.621,4.06,2.354c0.249-2.061,3.486-1.861,4.98-1.861C10.036,0.494,13.273,0.426,13.709,1.689z M12.713,2.289
	c0.312,0.798,0.187,1.929,0.934,2.926H4.434c0.498-0.931,0.374-2.061,0.81-2.926c0.249-0.666,2.988-0.599,3.797-0.599
	C9.788,1.689,12.464,1.623,12.713,2.289z M13.958,6.479c2.179,0.398,2.366,1.662,2.366,2.992c0,0.931-0.374,1.197-0.374,2.395
	c0,0.132,0.063,0.797,0.125,1.197c0,0.133,0.249,0.399,0.249,0.598v8.379c0.062,1.397-1.307,2.461-2.241,2.461H3.874
	c-1.37,0-2.179-1.462-2.179-2.394V8.872c-0.062-1.13,1.245-2.526,2.304-2.394H13.958z M17.382,13.062
	c-0.063-0.133-0.187-0.333-0.187-0.466V11.2c0.062-0.134,0.125-0.333,0.187-0.465C17.444,10.801,17.444,10.933,17.382,13.062z
	 M13.584,25.763c-0.56,0.865-0.436,1.995-0.872,2.927c-0.249,0.598-2.988,0.598-3.735,0.598c-0.809,0-3.486,0-3.735-0.598
	c-0.312-0.865-0.187-1.996-0.872-2.927H13.584z"/>
</svg>
